<svg viewBox="0 0 580 285" xmlns="http://www.w3.org/2000/svg" fill-rule="evenodd" clip-rule="evenodd" stroke-linejoin="round" stroke-miterlimit="1.414"><g fill="#ffc900" fill-rule="nonzero"><path d="M69.75 33.383C46.125 73.602 21.375 113.962 0 155.305v37.407h92.531v32.625h43.172v-32.625h22.36v-36.704h-22.36V33.383H69.75zM40.219 156.008v-.843c15.469-30.797 32.765-59.907 50.203-88.313h2.109v89.156H40.219zM491.627 37.986c-23.625 40.219-48.375 80.578-69.75 121.922v37.406h92.532v32.625h43.171v-32.625h22.36v-36.703h-22.36V37.986h-65.953zm-29.531 122.625v-.843c15.469-30.797 32.766-59.907 50.203-88.313h2.11v89.156h-52.313z"/><path d="M317.205 156.412c-2.284-4.682-2.581-10.043-1.371-14.691l2.626 5.384c3.769 7.725 8.708 14.879 14.475 20.759-6.629-1.113-12.647-5.132-15.73-11.452zm-25.693 6.738c-10.299 5.025-22.837.709-27.862-9.591-5.025-10.299-.709-22.837 9.59-27.862 10.3-5.025 22.838-.709 27.863 9.591 5.025 10.299.709 22.837-9.591 27.862zm22.84 46.817c-10.299 5.024-22.838.709-27.862-9.591-5.025-10.3-.709-22.838 9.59-27.863 10.3-5.024 22.838-.709 27.863 9.591 5.025 10.3.709 22.838-9.591 27.863zm-53.555-2.853c-10.299 5.025-22.837.709-27.862-9.59-5.025-10.3-.709-22.838 9.59-27.863 10.3-5.025 22.838-.709 27.863 9.591 5.025 10.299.709 22.837-9.591 27.862zm-41.111-84.27c6.788-3.311 14.701-2.535 20.605 1.25-5.349 11.014-6.291 23.934-1.865 35.975l-.234.114c-10.3 5.025-22.838.709-27.863-9.59-5.025-10.3-.943-22.724 9.357-27.749zm30.715-43.964c10.299-5.025 22.837-.709 27.862 9.591 1.485 3.043 2.039 5.961 2.125 9.106-6.292.172-12.481 1.742-18.567 4.712-6.087 2.969-11.134 6.88-15.141 11.733-2.427-2.004-4.385-4.236-5.87-7.279-5.025-10.3-.709-22.838 9.591-27.863zm53.554 2.853c10.3-5.025 22.838-.709 27.863 9.59 5.025 10.3.709 22.838-9.591 27.863l-.234.114c-6.766-10.899-17.763-17.995-29.501-20.673.416-6.868 4.675-13.583 11.463-16.894zm28.55 58.52l-5.71-11.704c10.3-5.025 22.838-.709 27.863 9.591 4.111 8.427 2.033 18.424-4.549 24.534-7.28-6.012-13.264-13.525-17.604-22.421zm90.554 31.17c-15.216 7.423-31.767 8.543-46.989 4.667 8.038-23.917 7.135-50.718-4.742-75.062-23.982-49.158-83.19-69.538-132.347-45.556-49.158 23.982-69.538 83.19-45.556 132.347 23.982 49.158 83.19 69.538 132.347 45.556 19.663-9.593 34.838-24.821 44.218-43.017 19.281 5.663 40.492 4.589 59.921-4.89l-6.852-14.045z"/></g></svg>