<svg viewBox="0 0 396 161" xmlns="http://www.w3.org/2000/svg" stroke-linejoin="round" stroke-miterlimit="1.414"><g><path d="M117.002.643c36.845.809 73.204-.238 110.48 1.121 14.917-.22 52.493 18.198 52.244 80.216-.223 55.636-40.625 71.883-50.675 75.688-7.304 2.766-67.297.211-67.297.211-1.134-.289-22.707-.111-45.827-30.54-24.193-31.841-63.919-87.631-63.919-87.631C50.24 37.014 23.226 6.424 0 14.725c.048-.034 2.399-2.408 2.399-2.408 6.863-6.335 29.471-5.263 37.24-3.029 6.018 1.73 28.926 6.822 46.417 24.719 16.633 17.017 70.626 94.422 70.626 94.422l54.119 1.242c4.377-1.217 35.069-3.714 35.362-47.691.303-45.568-19.021-50.776-35.362-51.915l-111.812-.831S68.367 4.17 50.634 2.924C48.043-1.83 117.002.643 117.002.643z" fill="#ffc900"/><path d="M194.93 1.085c-1.357.788 21.664 6.661 30.531 31.913-1.849-.38-10.638-2.911-14.66-2.995-4.021-.084-34.898-.313-34.898-.313S150.343 1.674 142.666.94c3.468.242 52.263.072 52.264.145zM197.286 158.955c-4.465.031-31.956-17.232-41.044-31.104 13.313.578 54.559 1.758 54.559 1.758l32.793 20.954c-1.216.789-6.475 5.424-17.032 7.646-5.798 1.221-19.256.675-29.276.746zM0 30.007v100.939s5.324 25.604 23.883 26.378c18.559.774 30.475 0 30.475 0s-16.49-13.586-17.516-26.271c-1.025-12.686.167-83.292.167-83.292C34.191 38.637 23.059 32.945 0 30.007z" fill="#ddaf16"/><path d="M0 130.593V26.249c24.753-3.095 34.683 9.988 37.009 21.512 0 0-.09 5.291-.198 13.237l-.16-.084L0 130.593zM302.576 80.612l-.316-14.549 38.502.241c5.027-.294 22.073.075 21.027-16.733-1.219-19.576-9.497-20.536-27.174-20.959l-54.887.485c.776-3.323-20.371-26.709-26.077-27.258C264.86.072 288.027.593 288.027.593c23.108.415 45.911-.123 69.289.576 9.356-.113 36.906 15.878 37.829 47.753.399 13.794-5.154 24.33-11.988 31.69 6.834 7.36 12.387 17.896 11.988 31.69-.923 31.875-28.473 47.866-37.829 47.753-23.378.699-46.181.161-69.289.577 0 0-23.167.521-34.376-1.247 5.706-.548 26.853-23.935 26.077-27.258l54.887.485c17.677-.423 25.955-1.383 27.174-20.959 1.046-16.807-16-16.439-21.027-16.733l-38.502.241.316-14.549z" fill="#ffc900"/><path d="M340.407.85s33.182 16.785 19.889 39.395c-2.061-3.648-2.203-11.777-26.897-11.59-24.693.186-34.344.255-34.344.255 36.977 2.083 29.409-26.015-15.957-28.389 9.269-.032 57.309.329 57.309.329zM345.405 95.198s40.365-3.445 49.338 22.344c-2.573 13.883-7.952 23.998-15.026 30.553-7.075 6.555-10.281 7.549-10.281 7.549s2.848-21.266-12.22-28.52c1.424-1.738 15.037-28.859-11.811-31.926z" fill="#ddaf16"/></g></svg>